<?xml version="1.0" encoding="UTF-8"?>
<!DOCTYPE svg PUBLIC "-//W3C//DTD SVG 1.1//EN" "http://www.w3.org/Graphics/SVG/1.1/DTD/svg11.dtd">
<svg xmlns="http://www.w3.org/2000/svg" version="1.1" width="512px" height="512px" style="shape-rendering:geometricPrecision; text-rendering:geometricPrecision; image-rendering:optimizeQuality; fill-rule:evenodd; clip-rule:evenodd" xmlns:xlink="http://www.w3.org/1999/xlink">
<g><path style="opacity:0.981" fill="#c398fa" d="M 356.5,67.5 C 288.669,68.4992 220.669,68.8325 152.5,68.5C 202.813,41.2528 255.813,34.7528 311.5,49C 327.436,53.1385 342.436,59.3052 356.5,67.5 Z"/></g>
<g><path style="opacity:0.998" fill="#bf96fa" d="M 356.5,67.5 C 365.844,71.8334 374.511,77.1668 382.5,83.5C 297.571,84.4971 212.571,84.8304 127.5,84.5C 135.292,78.3852 143.625,73.0519 152.5,68.5C 220.669,68.8325 288.669,68.4992 356.5,67.5 Z"/></g>
<g><path style="opacity:0.998" fill="#bc94fa" d="M 382.5,83.5 C 390.783,89.4494 398.45,96.1161 405.5,103.5C 305.5,103.5 205.5,103.5 105.5,103.5C 112.218,96.4484 119.551,90.115 127.5,84.5C 212.571,84.8304 297.571,84.4971 382.5,83.5 Z"/></g>
<g><path style="opacity:0.998" fill="#b791f9" d="M 105.5,103.5 C 205.5,103.5 305.5,103.5 405.5,103.5C 416.715,113.373 426.049,124.706 433.5,137.5C 314.668,138.5 195.668,138.833 76.5,138.5C 84.5072,125.503 94.1739,113.836 105.5,103.5 Z"/></g>
<g><path style="opacity:0.997" fill="#b18df8" d="M 433.5,137.5 C 441.378,148.586 447.712,160.586 452.5,173.5C 424.5,173.5 396.5,173.5 368.5,173.5C 363.869,169.37 359.369,165.037 355,160.5C 350.631,165.037 346.131,169.37 341.5,173.5C 247.167,173.5 152.833,173.5 58.5,173.5C 63.1899,161.119 69.1899,149.453 76.5,138.5C 195.668,138.833 314.668,138.5 433.5,137.5 Z"/></g>
<g><path style="opacity:0.997" fill="#ac8af7" d="M 58.5,173.5 C 152.833,173.5 247.167,173.5 341.5,173.5C 335.833,179.833 329.833,185.833 323.5,191.5C 232.833,191.5 142.167,191.5 51.5,191.5C 53.0702,185.109 55.4035,179.109 58.5,173.5 Z"/></g>
<g><path style="opacity:0.996" fill="#a988f7" d="M 51.5,191.5 C 142.167,191.5 232.833,191.5 323.5,191.5C 318.833,196.833 313.833,201.833 308.5,206.5C 221.429,206.17 134.429,206.503 47.5,207.5C 48.2264,201.993 49.5597,196.659 51.5,191.5 Z"/></g>
<g><path style="opacity:0.99" fill="#aa89f7" d="M 368.5,173.5 C 396.5,173.5 424.5,173.5 452.5,173.5C 457.536,183.943 461.203,194.943 463.5,206.5C 431.833,206.5 400.167,206.5 368.5,206.5C 373.63,200.869 378.964,195.369 384.5,190C 378.964,184.631 373.63,179.131 368.5,173.5 Z"/></g>
<g><path style="opacity:0.994" fill="#a585f6" d="M 308.5,206.5 C 295.833,219.833 282.833,232.833 269.5,245.5C 245.994,245.169 222.661,245.502 199.5,246.5C 190.854,238.188 182.187,229.855 173.5,221.5C 165.146,229.521 156.813,237.521 148.5,245.5C 113.167,245.5 77.8333,245.5 42.5,245.5C 42.7845,247.415 42.4511,249.081 41.5,250.5C 41.9584,235.817 43.9584,221.484 47.5,207.5C 134.429,206.503 221.429,206.17 308.5,206.5 Z"/></g>
<g><path style="opacity:0.993" fill="#a485f6" d="M 368.5,206.5 C 400.167,206.5 431.833,206.5 463.5,206.5C 466.561,219.317 468.561,232.317 469.5,245.5C 422.997,245.832 376.664,245.499 330.5,244.5C 342.833,231.5 355.5,218.833 368.5,206.5 Z"/></g>
<g><path style="opacity:0.993" fill="#9e81f5" d="M 330.5,244.5 C 376.664,245.499 422.997,245.832 469.5,245.5C 469.65,254.857 469.317,264.191 468.5,273.5C 413.238,272.504 357.905,272.171 302.5,272.5C 311.5,262.833 320.833,253.5 330.5,244.5 Z"/></g>
<g><path style="opacity:0.988" fill="#9e81f5" d="M 148.5,245.5 C 147.375,247.129 146.041,248.629 144.5,250C 152.036,257.368 159.369,264.868 166.5,272.5C 125.094,272.827 83.761,272.494 42.5,271.5C 41.6591,264.535 41.3257,257.535 41.5,250.5C 42.4511,249.081 42.7845,247.415 42.5,245.5C 77.8333,245.5 113.167,245.5 148.5,245.5 Z"/></g>
<g><path style="opacity:0.976" fill="#9f82f6" d="M 269.5,245.5 C 258.16,257.673 246.327,269.34 234,280.5C 222.007,269.673 210.507,258.34 199.5,246.5C 222.661,245.502 245.994,245.169 269.5,245.5 Z"/></g>
<g><path style="opacity:0.996" fill="#997ef4" d="M 42.5,271.5 C 83.761,272.494 125.094,272.827 166.5,272.5C 178.833,284.167 190.833,296.167 202.5,308.5C 151.095,308.829 99.7616,308.495 48.5,307.5C 45.0069,295.875 43.0069,283.875 42.5,271.5 Z"/></g>
<g><path style="opacity:0.995" fill="#997ef5" d="M 302.5,272.5 C 357.905,272.171 413.238,272.504 468.5,273.5C 467.683,285.404 465.683,297.07 462.5,308.5C 397.167,308.5 331.833,308.5 266.5,308.5C 278.167,296.167 290.167,284.167 302.5,272.5 Z"/></g>
<g><path style="opacity:0.997" fill="#927af4" d="M 48.5,307.5 C 99.7616,308.495 151.095,308.829 202.5,308.5C 213.146,318.812 223.813,329.145 234.5,339.5C 245.187,329.145 255.854,318.812 266.5,308.5C 331.833,308.5 397.167,308.5 462.5,308.5C 459.69,320.597 455.69,332.263 450.5,343.5C 320.5,343.5 190.5,343.5 60.5,343.5C 55.105,331.982 51.105,319.982 48.5,307.5 Z"/></g>
<g><path style="opacity:0.998" fill="#8e77f3" d="M 60.5,343.5 C 190.5,343.5 320.5,343.5 450.5,343.5C 447.325,350.523 443.659,357.189 439.5,363.5C 316.668,362.5 193.668,362.167 70.5,362.5C 66.9282,356.359 63.5949,350.026 60.5,343.5 Z"/></g>
<g><path style="opacity:0.998" fill="#8a75f3" d="M 70.5,362.5 C 193.668,362.167 316.668,362.5 439.5,363.5C 437.582,368.343 434.916,372.677 431.5,376.5C 314.332,376.167 197.332,376.5 80.5,377.5C 76.4357,373.053 73.1024,368.053 70.5,362.5 Z"/></g>
<g><path style="opacity:0.998" fill="#8672f2" d="M 431.5,376.5 C 421.906,391.352 410.239,404.352 396.5,415.5C 302.665,415.167 208.999,415.501 115.5,416.5C 101.303,405.644 89.6368,392.644 80.5,377.5C 197.332,376.5 314.332,376.167 431.5,376.5 Z"/></g>
<g><path style="opacity:0.995" fill="#7f6ef1" d="M 396.5,415.5 C 381.226,429.815 363.892,441.149 344.5,449.5C 284.833,448.167 225.167,448.167 165.5,449.5C 147.082,440.971 130.415,429.971 115.5,416.5C 208.999,415.501 302.665,415.167 396.5,415.5 Z"/></g>
<g><path style="opacity:0.981" fill="#7a6bf1" d="M 165.5,449.5 C 225.167,448.167 284.833,448.167 344.5,449.5C 284.937,476.147 225.27,476.147 165.5,449.5 Z"/></g>
</svg>
